<mxfile host="app.diagrams.net" agent="Mozilla/5.0 (Windows NT 10.0; Win64; x64) AppleWebKit/537.36 (KHTML, like Gecko) Chrome/137.0.0.0 Safari/537.36" version="27.1.5">
  <diagram name="第 1 页" id="atoLTKYN6ja91Ou9wwb8">
    <mxGraphModel dx="1042" dy="535" grid="1" gridSize="10" guides="1" tooltips="1" connect="1" arrows="1" fold="1" page="1" pageScale="1" pageWidth="827" pageHeight="1169" math="0" shadow="0">
      <root>
        <mxCell id="0" />
        <mxCell id="1" parent="0" />
        <mxCell id="ze23tj0L3lsAWGdD1u4b-1" value="Orgchart" style="swimlane;startSize=20;horizontal=1;containerType=tree;newEdgeStyle={&quot;edgeStyle&quot;:&quot;elbowEdgeStyle&quot;,&quot;startArrow&quot;:&quot;none&quot;,&quot;endArrow&quot;:&quot;none&quot;};" parent="1" vertex="1">
          <mxGeometry x="90" y="40" width="620" height="520" as="geometry" />
        </mxCell>
        <mxCell id="zBCr5KkDJ-O4WMeaJdgD-40" value="" style="group;" parent="ze23tj0L3lsAWGdD1u4b-1" vertex="1" connectable="0">
          <mxGeometry x="10" y="378" width="210" height="80" as="geometry" />
        </mxCell>
        <mxCell id="zBCr5KkDJ-O4WMeaJdgD-27" value="&lt;div&gt;&lt;b&gt;&lt;font style=&quot;color: rgb(255, 0, 0);&quot;&gt;&lt;br&gt;&lt;/font&gt;&lt;/b&gt;&lt;/div&gt;&lt;div&gt;&lt;b&gt;&lt;font style=&quot;color: rgb(255, 0, 0);&quot;&gt;133W&lt;/font&gt;&lt;/b&gt;&lt;/div&gt;" style="text;html=1;align=left;verticalAlign=middle;resizable=0;points=[];autosize=1;strokeColor=none;fillColor=none;" parent="zBCr5KkDJ-O4WMeaJdgD-40" vertex="1">
          <mxGeometry y="10" width="50" height="40" as="geometry" />
        </mxCell>
        <mxCell id="zBCr5KkDJ-O4WMeaJdgD-39" value="&lt;div&gt;&lt;br&gt;&lt;/div&gt;&lt;div&gt;&lt;span style=&quot;background-color: transparent; color: light-dark(rgb(0, 0, 0), rgb(255, 255, 255));&quot;&gt;计量误差（准确度实验室）&lt;/span&gt;&lt;/div&gt;&lt;div&gt;安规实验室&lt;/div&gt;&lt;div&gt;EMC实验室&lt;/div&gt;&lt;div&gt;环境实验室&lt;/div&gt;&lt;div&gt;基建，吊装&lt;/div&gt;&lt;div&gt;&lt;br style=&quot;text-align: left; text-wrap-mode: nowrap;&quot;&gt;&lt;/div&gt;" style="whiteSpace=wrap;html=1;fillColor=#d5e8d4;strokeColor=#82b366;" parent="zBCr5KkDJ-O4WMeaJdgD-40" vertex="1">
          <mxGeometry x="40" width="170" height="80" as="geometry" />
        </mxCell>
        <mxCell id="zBCr5KkDJ-O4WMeaJdgD-41" value="" style="group" parent="ze23tj0L3lsAWGdD1u4b-1" vertex="1" connectable="0">
          <mxGeometry x="320" y="360" width="270" height="130" as="geometry" />
        </mxCell>
        <mxCell id="zBCr5KkDJ-O4WMeaJdgD-35" value="" style="group" parent="zBCr5KkDJ-O4WMeaJdgD-41" vertex="1" connectable="0">
          <mxGeometry x="150" width="120" height="130" as="geometry" />
        </mxCell>
        <mxCell id="zBCr5KkDJ-O4WMeaJdgD-31" value="实验室人员" style="whiteSpace=wrap;html=1;fillColor=#d5e8d4;strokeColor=#82b366;" parent="zBCr5KkDJ-O4WMeaJdgD-35" vertex="1">
          <mxGeometry width="120" height="60" as="geometry" />
        </mxCell>
        <mxCell id="zBCr5KkDJ-O4WMeaJdgD-34" value="电表顾问" style="whiteSpace=wrap;html=1;fillColor=#d5e8d4;strokeColor=#82b366;" parent="zBCr5KkDJ-O4WMeaJdgD-35" vertex="1">
          <mxGeometry y="70" width="120" height="60" as="geometry" />
        </mxCell>
        <mxCell id="zBCr5KkDJ-O4WMeaJdgD-36" value="第一阶段可选" style="text;html=1;align=center;verticalAlign=middle;resizable=0;points=[];autosize=1;strokeColor=none;fillColor=none;" parent="zBCr5KkDJ-O4WMeaJdgD-41" vertex="1">
          <mxGeometry x="40" y="18" width="100" height="30" as="geometry" />
        </mxCell>
        <mxCell id="zBCr5KkDJ-O4WMeaJdgD-37" value="第一阶段合作模式可探讨,&lt;div&gt;每月支付2000 RMB，一年&lt;font style=&quot;color: rgb(255, 0, 0);&quot;&gt;&lt;b&gt;3W&lt;/b&gt;&lt;/font&gt;&lt;/div&gt;" style="text;html=1;align=center;verticalAlign=middle;resizable=0;points=[];autosize=1;strokeColor=none;fillColor=none;" parent="zBCr5KkDJ-O4WMeaJdgD-41" vertex="1">
          <mxGeometry x="-30" y="83" width="180" height="40" as="geometry" />
        </mxCell>
        <mxCell id="zBCr5KkDJ-O4WMeaJdgD-42" value="" style="group" parent="ze23tj0L3lsAWGdD1u4b-1" vertex="1" connectable="0">
          <mxGeometry x="20" y="80" width="550" height="230" as="geometry" />
        </mxCell>
        <mxCell id="ze23tj0L3lsAWGdD1u4b-2" value="" style="edgeStyle=elbowEdgeStyle;elbow=vertical;sourcePerimeterSpacing=0;targetPerimeterSpacing=0;startArrow=none;endArrow=none;rounded=0;curved=0;" parent="zBCr5KkDJ-O4WMeaJdgD-42" source="ze23tj0L3lsAWGdD1u4b-4" target="ze23tj0L3lsAWGdD1u4b-5" edge="1">
          <mxGeometry relative="1" as="geometry" />
        </mxCell>
        <mxCell id="ze23tj0L3lsAWGdD1u4b-3" value="" style="edgeStyle=elbowEdgeStyle;elbow=vertical;sourcePerimeterSpacing=0;targetPerimeterSpacing=0;startArrow=none;endArrow=none;rounded=0;curved=0;" parent="zBCr5KkDJ-O4WMeaJdgD-42" source="ze23tj0L3lsAWGdD1u4b-4" target="ze23tj0L3lsAWGdD1u4b-6" edge="1">
          <mxGeometry relative="1" as="geometry" />
        </mxCell>
        <UserObject label="产品开发测试(40)" treeRoot="1" id="ze23tj0L3lsAWGdD1u4b-4">
          <mxCell style="whiteSpace=wrap;html=1;align=center;treeFolding=1;treeMoving=1;newEdgeStyle={&quot;edgeStyle&quot;:&quot;elbowEdgeStyle&quot;,&quot;startArrow&quot;:&quot;none&quot;,&quot;endArrow&quot;:&quot;none&quot;};" parent="zBCr5KkDJ-O4WMeaJdgD-42" vertex="1">
            <mxGeometry x="175" width="120" height="60" as="geometry" />
          </mxCell>
        </UserObject>
        <mxCell id="ze23tj0L3lsAWGdD1u4b-5" value="固件开发(30)" style="whiteSpace=wrap;html=1;align=center;verticalAlign=middle;treeFolding=1;treeMoving=1;newEdgeStyle={&quot;edgeStyle&quot;:&quot;elbowEdgeStyle&quot;,&quot;startArrow&quot;:&quot;none&quot;,&quot;endArrow&quot;:&quot;none&quot;};" parent="zBCr5KkDJ-O4WMeaJdgD-42" vertex="1" collapsed="1">
          <mxGeometry y="170" width="100" height="60" as="geometry" />
        </mxCell>
        <mxCell id="ze23tj0L3lsAWGdD1u4b-6" value="硬件开发(30)" style="whiteSpace=wrap;html=1;align=center;verticalAlign=middle;treeFolding=1;treeMoving=1;newEdgeStyle={&quot;edgeStyle&quot;:&quot;elbowEdgeStyle&quot;,&quot;startArrow&quot;:&quot;none&quot;,&quot;endArrow&quot;:&quot;none&quot;};" parent="zBCr5KkDJ-O4WMeaJdgD-42" vertex="1">
          <mxGeometry x="120" y="170" width="100" height="60" as="geometry" />
        </mxCell>
        <mxCell id="ze23tj0L3lsAWGdD1u4b-10" value="上位机(18)" style="whiteSpace=wrap;html=1;align=center;verticalAlign=middle;treeFolding=1;treeMoving=1;newEdgeStyle={&quot;edgeStyle&quot;:&quot;elbowEdgeStyle&quot;,&quot;startArrow&quot;:&quot;none&quot;,&quot;endArrow&quot;:&quot;none&quot;};fillColor=#d5e8d4;strokeColor=#82b366;" parent="zBCr5KkDJ-O4WMeaJdgD-42" vertex="1">
          <mxGeometry x="240" y="170" width="100" height="60" as="geometry" />
        </mxCell>
        <mxCell id="ze23tj0L3lsAWGdD1u4b-11" value="" style="edgeStyle=elbowEdgeStyle;elbow=vertical;sourcePerimeterSpacing=0;targetPerimeterSpacing=0;startArrow=none;endArrow=none;rounded=0;curved=0;" parent="zBCr5KkDJ-O4WMeaJdgD-42" source="ze23tj0L3lsAWGdD1u4b-4" target="ze23tj0L3lsAWGdD1u4b-10" edge="1">
          <mxGeometry relative="1" as="geometry">
            <mxPoint x="214" y="60" as="sourcePoint" />
            <mxPoint x="170" y="170" as="targetPoint" />
          </mxGeometry>
        </mxCell>
        <mxCell id="ze23tj0L3lsAWGdD1u4b-12" value="测试(20)" style="whiteSpace=wrap;html=1;align=center;verticalAlign=middle;treeFolding=1;treeMoving=1;newEdgeStyle={&quot;edgeStyle&quot;:&quot;elbowEdgeStyle&quot;,&quot;startArrow&quot;:&quot;none&quot;,&quot;endArrow&quot;:&quot;none&quot;};" parent="zBCr5KkDJ-O4WMeaJdgD-42" vertex="1" collapsed="1">
          <mxGeometry x="370" y="170" width="100" height="60" as="geometry" />
        </mxCell>
        <mxCell id="ze23tj0L3lsAWGdD1u4b-13" value="" style="edgeStyle=elbowEdgeStyle;elbow=vertical;sourcePerimeterSpacing=0;targetPerimeterSpacing=0;startArrow=none;endArrow=none;rounded=0;curved=0;" parent="zBCr5KkDJ-O4WMeaJdgD-42" source="ze23tj0L3lsAWGdD1u4b-4" target="ze23tj0L3lsAWGdD1u4b-12" edge="1">
          <mxGeometry relative="1" as="geometry">
            <mxPoint x="214" y="60" as="sourcePoint" />
            <mxPoint x="290" y="170" as="targetPoint" />
          </mxGeometry>
        </mxCell>
        <mxCell id="zBCr5KkDJ-O4WMeaJdgD-46" value="运营人员/供应链" style="whiteSpace=wrap;html=1;" parent="zBCr5KkDJ-O4WMeaJdgD-42" vertex="1">
          <mxGeometry x="480" width="120" height="60" as="geometry" />
        </mxCell>
        <mxCell id="zBCr5KkDJ-O4WMeaJdgD-57" value="40W" style="text;html=1;align=center;verticalAlign=middle;resizable=0;points=[];autosize=1;strokeColor=none;fillColor=none;" parent="zBCr5KkDJ-O4WMeaJdgD-42" vertex="1">
          <mxGeometry x="430" y="10" width="50" height="30" as="geometry" />
        </mxCell>
        <mxCell id="zBCr5KkDJ-O4WMeaJdgD-58" value="20W" style="text;html=1;align=center;verticalAlign=middle;resizable=0;points=[];autosize=1;strokeColor=none;fillColor=none;" parent="zBCr5KkDJ-O4WMeaJdgD-42" vertex="1">
          <mxGeometry x="430" y="70" width="50" height="30" as="geometry" />
        </mxCell>
        <mxCell id="NVIp36pszzyaolHd8WoN-10" value="30W" style="text;html=1;align=center;verticalAlign=middle;resizable=0;points=[];autosize=1;strokeColor=none;fillColor=none;" parent="zBCr5KkDJ-O4WMeaJdgD-42" vertex="1">
          <mxGeometry x="430" y="120" width="50" height="30" as="geometry" />
        </mxCell>
        <mxCell id="NVIp36pszzyaolHd8WoN-11" value="&lt;font style=&quot;color: rgb(255, 0, 0);&quot;&gt;&lt;b&gt;90W&lt;/b&gt;&lt;/font&gt;" style="text;html=1;align=center;verticalAlign=middle;resizable=0;points=[];autosize=1;strokeColor=none;fillColor=none;" parent="zBCr5KkDJ-O4WMeaJdgD-42" vertex="1">
          <mxGeometry x="380" y="40" width="50" height="30" as="geometry" />
        </mxCell>
        <mxCell id="zBCr5KkDJ-O4WMeaJdgD-44" value="市场人员" style="whiteSpace=wrap;html=1;fillColor=#d5e8d4;strokeColor=#82b366;" parent="ze23tj0L3lsAWGdD1u4b-1" vertex="1">
          <mxGeometry x="500" y="20" width="120" height="60" as="geometry" />
        </mxCell>
        <mxCell id="zBCr5KkDJ-O4WMeaJdgD-47" value="生产工艺/结构" style="whiteSpace=wrap;html=1;" parent="ze23tj0L3lsAWGdD1u4b-1" vertex="1">
          <mxGeometry x="500" y="140" width="120" height="60" as="geometry" />
        </mxCell>
        <mxCell id="NVIp36pszzyaolHd8WoN-1" value="20套表计样品&amp;nbsp; &amp;nbsp; 10W&lt;div&gt;&amp;nbsp; &amp;nbsp; 模具费用：&amp;nbsp; &amp;nbsp; &amp;nbsp;100W&lt;/div&gt;&lt;div&gt;&lt;span style=&quot;background-color: transparent; color: light-dark(rgb(0, 0, 0), rgb(255, 255, 255));&quot;&gt;竞品分析:&amp;nbsp; &amp;nbsp; &amp;nbsp; &amp;nbsp; &amp;nbsp;2W&lt;/span&gt;&lt;/div&gt;&lt;div&gt;办公室运营：&amp;nbsp; &amp;nbsp; 50W&lt;/div&gt;&lt;div&gt;产品认证费用： 30W&lt;/div&gt;&lt;div&gt;产品委外测试：30W&lt;/div&gt;&lt;div&gt;&lt;br&gt;&lt;/div&gt;" style="text;html=1;align=center;verticalAlign=middle;resizable=0;points=[];autosize=1;strokeColor=none;fillColor=none;" parent="ze23tj0L3lsAWGdD1u4b-1" vertex="1">
          <mxGeometry x="10" y="25" width="140" height="110" as="geometry" />
        </mxCell>
        <mxCell id="zBCr5KkDJ-O4WMeaJdgD-50" value="财务人员" style="whiteSpace=wrap;html=1;" parent="1" vertex="1">
          <mxGeometry x="590" y="230" width="120" height="60" as="geometry" />
        </mxCell>
        <mxCell id="zBCr5KkDJ-O4WMeaJdgD-51" value="供应链" style="whiteSpace=wrap;html=1;fillColor=#d5e8d4;strokeColor=#82b366;" parent="1" vertex="1">
          <mxGeometry x="590" y="280" width="120" height="60" as="geometry" />
        </mxCell>
        <mxCell id="NVIp36pszzyaolHd8WoN-2" value="&lt;b&gt;&lt;font style=&quot;color: rgb(255, 0, 0);&quot;&gt;432W&lt;/font&gt;&lt;/b&gt;" style="text;html=1;align=center;verticalAlign=middle;resizable=0;points=[];autosize=1;strokeColor=none;fillColor=none;" parent="1" vertex="1">
          <mxGeometry x="405" y="68" width="50" height="30" as="geometry" />
        </mxCell>
        <mxCell id="NVIp36pszzyaolHd8WoN-9" value="&lt;b&gt;&lt;font style=&quot;color: rgb(255, 0, 0);&quot;&gt;222W&lt;/font&gt;&lt;/b&gt;" style="text;html=1;align=center;verticalAlign=middle;resizable=0;points=[];autosize=1;strokeColor=none;fillColor=none;" parent="1" vertex="1">
          <mxGeometry x="160" y="160" width="50" height="30" as="geometry" />
        </mxCell>
        <mxCell id="NVIp36pszzyaolHd8WoN-12" value="&lt;font style=&quot;color: rgb(255, 0, 0);&quot;&gt;&lt;b&gt;120W&lt;/b&gt;&lt;/font&gt;" style="text;html=1;align=center;verticalAlign=middle;resizable=0;points=[];autosize=1;strokeColor=none;fillColor=none;" parent="1" vertex="1">
          <mxGeometry x="365" y="188" width="50" height="30" as="geometry" />
        </mxCell>
        <mxCell id="-p8jg17vCJRUrCgAk-5i-1" value="" style="line;strokeWidth=2;html=1;fillColor=none;fontSize=28;fontColor=#004D99;strokeColor=#004D99;" parent="1" vertex="1">
          <mxGeometry x="10" y="790" width="1000" height="10" as="geometry" />
        </mxCell>
        <mxCell id="-p8jg17vCJRUrCgAk-5i-2" value="Stage 1" style="shape=offPageConnector;whiteSpace=wrap;html=1;fillColor=#0075E8;fontSize=15;fontColor=#FFFFFF;size=0.5093750000000015;verticalAlign=top;strokeColor=none;" parent="1" vertex="1">
          <mxGeometry x="90" y="730" width="160" height="40" as="geometry" />
        </mxCell>
        <mxCell id="-p8jg17vCJRUrCgAk-5i-3" value="&lt;span&gt;Stage 3&lt;/span&gt;" style="shape=offPageConnector;whiteSpace=wrap;html=1;fillColor=#0075E8;fontSize=15;fontColor=#FFFFFF;size=0.5093750000000015;verticalAlign=top;strokeColor=none;" parent="1" vertex="1">
          <mxGeometry x="543" y="730" width="160" height="40" as="geometry" />
        </mxCell>
        <mxCell id="-p8jg17vCJRUrCgAk-5i-4" value="&lt;span&gt;Stage 2&lt;/span&gt;" style="shape=offPageConnector;whiteSpace=wrap;html=1;fillColor=#0075E8;fontSize=15;fontColor=#FFFFFF;size=0.4178571428571445;flipV=1;verticalAlign=bottom;strokeColor=none;spacingBottom=4;" parent="1" vertex="1">
          <mxGeometry x="317" y="815" width="160" height="35" as="geometry" />
        </mxCell>
        <mxCell id="-p8jg17vCJRUrCgAk-5i-5" value="&lt;span&gt;Stage 4&lt;/span&gt;" style="shape=offPageConnector;whiteSpace=wrap;html=1;fillColor=#0075E8;fontSize=15;fontColor=#FFFFFF;size=0.4178571428571445;flipV=1;verticalAlign=bottom;strokeColor=none;spacingBottom=4;" parent="1" vertex="1">
          <mxGeometry x="770" y="815" width="160" height="35" as="geometry" />
        </mxCell>
        <mxCell id="-p8jg17vCJRUrCgAk-5i-6" value="" style="ellipse;whiteSpace=wrap;html=1;fillColor=#61BAFF;fontSize=28;fontColor=#004D99;strokeWidth=3;strokeColor=#004D99;" parent="1" vertex="1">
          <mxGeometry x="160" y="785" width="20" height="20" as="geometry" />
        </mxCell>
        <mxCell id="-p8jg17vCJRUrCgAk-5i-7" value="" style="ellipse;whiteSpace=wrap;html=1;fillColor=#61BAFF;fontSize=28;fontColor=#004D99;strokeWidth=3;strokeColor=#004D99;" parent="1" vertex="1">
          <mxGeometry x="387" y="785" width="20" height="20" as="geometry" />
        </mxCell>
        <mxCell id="-p8jg17vCJRUrCgAk-5i-8" value="" style="ellipse;whiteSpace=wrap;html=1;fillColor=#61BAFF;fontSize=28;fontColor=#004D99;strokeWidth=3;strokeColor=#004D99;" parent="1" vertex="1">
          <mxGeometry x="613" y="785" width="20" height="20" as="geometry" />
        </mxCell>
        <mxCell id="-p8jg17vCJRUrCgAk-5i-9" value="" style="ellipse;whiteSpace=wrap;html=1;fillColor=#61BAFF;fontSize=28;fontColor=#004D99;strokeWidth=3;strokeColor=#004D99;" parent="1" vertex="1">
          <mxGeometry x="840" y="785" width="20" height="20" as="geometry" />
        </mxCell>
        <mxCell id="-p8jg17vCJRUrCgAk-5i-10" value="&lt;h1&gt;签署协议&lt;/h1&gt;&lt;p&gt;双方签署合作协议，定义并明确各自的责任和义务。（销售目标已包含，注意对赌协议和大股东回购协议）.&lt;/p&gt;" style="text;html=1;spacing=5;spacingTop=-20;whiteSpace=wrap;overflow=hidden;strokeColor=none;strokeWidth=3;fillColor=#E6E6E6;fontSize=13;fontColor=#000000;align=center;rounded=1;" parent="1" vertex="1">
          <mxGeometry x="63" y="820" width="215" height="120" as="geometry" />
        </mxCell>
        <mxCell id="-p8jg17vCJRUrCgAk-5i-11" value="&lt;h1&gt;建初始团队&lt;/h1&gt;&lt;p&gt;租办公室，注册公司，企业邮箱，企业域名，初始人员入职，招募人员。&lt;/p&gt;" style="text;html=1;spacing=5;spacingTop=-20;whiteSpace=wrap;overflow=hidden;strokeColor=none;strokeWidth=3;fillColor=#E6E6E6;fontSize=13;fontColor=#000000;align=center;rounded=1;" parent="1" vertex="1">
          <mxGeometry x="289" y="640" width="215" height="120" as="geometry" />
        </mxCell>
        <mxCell id="-p8jg17vCJRUrCgAk-5i-12" value="&lt;h1&gt;定产品目标&lt;/h1&gt;&lt;p&gt;聚焦特定市场的特定产品，购买竞品，进行产品分析，制定产品方案，正式开始研发。.&lt;/p&gt;" style="text;html=1;spacing=5;spacingTop=-20;whiteSpace=wrap;overflow=hidden;strokeColor=none;strokeWidth=3;fillColor=#E6E6E6;fontSize=13;fontColor=#000000;align=center;rounded=1;" parent="1" vertex="1">
          <mxGeometry x="515" y="820" width="215" height="120" as="geometry" />
        </mxCell>
        <mxCell id="-p8jg17vCJRUrCgAk-5i-13" value="&lt;h1&gt;产品&lt;/h1&gt;&lt;p&gt;产品做完测试，具备可生产和销售能力，输出所有的技术文档和销售材料。.&lt;/p&gt;" style="text;html=1;spacing=5;spacingTop=-20;whiteSpace=wrap;overflow=hidden;strokeColor=none;strokeWidth=3;fillColor=#E6E6E6;fontSize=13;fontColor=#000000;align=center;rounded=1;" parent="1" vertex="1">
          <mxGeometry x="743" y="640" width="215" height="120" as="geometry" />
        </mxCell>
        <mxCell id="-p8jg17vCJRUrCgAk-5i-14" value="&lt;font style=&quot;color: rgb(255, 0, 0);&quot;&gt;&lt;b&gt;2025.6.30&lt;/b&gt;&lt;/font&gt;" style="text;html=1;align=center;verticalAlign=middle;resizable=0;points=[];autosize=1;strokeColor=none;fillColor=none;" parent="1" vertex="1">
          <mxGeometry x="130" y="690" width="80" height="30" as="geometry" />
        </mxCell>
        <mxCell id="-p8jg17vCJRUrCgAk-5i-15" value="&lt;b&gt;&lt;font style=&quot;color: rgb(255, 0, 0);&quot;&gt;2025.7.30&lt;/font&gt;&lt;/b&gt;" style="text;html=1;align=center;verticalAlign=middle;resizable=0;points=[];autosize=1;strokeColor=none;fillColor=none;" parent="1" vertex="1">
          <mxGeometry x="356.5" y="850" width="80" height="30" as="geometry" />
        </mxCell>
        <mxCell id="-p8jg17vCJRUrCgAk-5i-16" value="&lt;font style=&quot;color: rgb(255, 0, 0);&quot;&gt;&lt;b&gt;2025.8.30&lt;/b&gt;&lt;/font&gt;" style="text;html=1;align=center;verticalAlign=middle;resizable=0;points=[];autosize=1;strokeColor=none;fillColor=none;" parent="1" vertex="1">
          <mxGeometry x="582.5" y="690" width="80" height="30" as="geometry" />
        </mxCell>
        <mxCell id="-p8jg17vCJRUrCgAk-5i-17" value="&lt;font style=&quot;color: rgb(255, 0, 0);&quot;&gt;&lt;b&gt;2026.1.1&lt;/b&gt;&lt;/font&gt;" style="text;html=1;align=center;verticalAlign=middle;resizable=0;points=[];autosize=1;strokeColor=none;fillColor=none;" parent="1" vertex="1">
          <mxGeometry x="815.5" y="850" width="70" height="30" as="geometry" />
        </mxCell>
        <mxCell id="uxqLoSJ2juYxk0nRJcqq-1" value="DLMS认证" style="swimlane;whiteSpace=wrap;html=1;" vertex="1" parent="1">
          <mxGeometry x="237" y="950" width="253" height="200" as="geometry" />
        </mxCell>
        <mxCell id="uxqLoSJ2juYxk0nRJcqq-2" value="产品认证费用： 3000欧元&lt;div&gt;DLMSTT2.0工具费用：3000欧元(其它厂家)&lt;/div&gt;&lt;div&gt;购买DLMSTT工具2.0 license: 60000欧元&lt;/div&gt;&lt;div&gt;工具每年需要交9000欧元&lt;/div&gt;&lt;div&gt;&lt;br&gt;&lt;/div&gt;&lt;div&gt;&lt;br&gt;&lt;/div&gt;" style="text;html=1;align=center;verticalAlign=middle;resizable=0;points=[];autosize=1;strokeColor=none;fillColor=none;" vertex="1" parent="uxqLoSJ2juYxk0nRJcqq-1">
          <mxGeometry y="30" width="250" height="100" as="geometry" />
        </mxCell>
        <mxCell id="uxqLoSJ2juYxk0nRJcqq-3" value="会员费用： Adopter Member, 2500欧元每年&lt;div&gt;&amp;nbsp; &amp;nbsp; &amp;nbsp; &amp;nbsp; &amp;nbsp; &amp;nbsp; &amp;nbsp; &amp;nbsp;Full Member, 4000欧元每年&lt;/div&gt;" style="text;html=1;align=center;verticalAlign=middle;resizable=0;points=[];autosize=1;strokeColor=none;fillColor=none;" vertex="1" parent="uxqLoSJ2juYxk0nRJcqq-1">
          <mxGeometry y="130" width="260" height="40" as="geometry" />
        </mxCell>
        <mxCell id="uxqLoSJ2juYxk0nRJcqq-4" value="STS认证" style="swimlane;whiteSpace=wrap;html=1;" vertex="1" parent="1">
          <mxGeometry x="730" y="950" width="253" height="200" as="geometry" />
        </mxCell>
        <mxCell id="uxqLoSJ2juYxk0nRJcqq-5" value="&lt;div&gt;&lt;br&gt;&lt;/div&gt;&lt;div&gt;注册会员： 2500美元&lt;/div&gt;产品认证费用： 1200美元&lt;div&gt;&lt;br&gt;&lt;/div&gt;" style="text;html=1;align=center;verticalAlign=middle;resizable=0;points=[];autosize=1;strokeColor=none;fillColor=none;" vertex="1" parent="uxqLoSJ2juYxk0nRJcqq-4">
          <mxGeometry x="43" y="55" width="160" height="70" as="geometry" />
        </mxCell>
        <mxCell id="uxqLoSJ2juYxk0nRJcqq-6" value="会员费用：&amp;nbsp;&lt;div&gt;&amp;nbsp; &amp;nbsp; &amp;nbsp; &amp;nbsp; &amp;nbsp; &amp;nbsp; &amp;nbsp; 2500美元每年&lt;/div&gt;" style="text;html=1;align=center;verticalAlign=middle;resizable=0;points=[];autosize=1;strokeColor=none;fillColor=none;" vertex="1" parent="uxqLoSJ2juYxk0nRJcqq-4">
          <mxGeometry x="53" y="120" width="140" height="40" as="geometry" />
        </mxCell>
      </root>
    </mxGraphModel>
  </diagram>
</mxfile>
